{"title":"Ice.Age.2.(2006).DVDRip.x264.Eng.AAC.5.1.AMX","uid":7414721,"size":897780995,"categoryP":"video","categoryS":"movies","magnet":"?xt=urn:btih:1694c732fdd7cb9dc3b32458426ddd1329c61436&amp;dn=Ice.Age.2.%282006%29.DVDRip.x264.Eng.AAC.5.1.AMX&amp;tr=udp%3A%2F%2Ftracker.openbittorrent.com%3A80&amp;tr=udp%3A%2F%2Fopen.demonii.com%3A1337&amp;tr=udp%3A%2F%2Ftracker.coppersurfer.tk%3A6969&amp;tr=udp%3A%2F%2Fexodus.desync.com%3A6969","seeders":1,"leechers":0,"uploader":"Lawry1494","files":-1,"time":1341479665,"description":"General\nComplete name                            : Ice.Age.2.(2006).DVDRip.x264.Eng.AAC.5.1.AMX\nFormat                                   : MPEG-4\nFormat profile                           : Base Media\nCodec ID                                 : isom\nFile size                                : 848 MiB\nDuration                                 : 1h 26mn\nOverall bit rate mode                    : Variable\nOverall bit rate                         : 1 365 Kbps\n\nVideo\nID                                       : 1\nFormat                                   : AVC\nBit rate                                 : 1 024 Kbps\nMaximum bit rate                         : 6 249 Kbps\nWidth                                    : 720 pixels\nHeight                                   : 384 pixels\nDisplay aspect ratio                     : 1.85:1\nFrame rate mode                          : Constant\nFrame rate                               : 25.000 fps\nColor space                              : YUV\nChroma subsampling                       : 4:2:0\nBit depth                                : 8 bits\nScan type                                : Progressive\nBits/(Pixel*Frame)                       : 0.148\nStream size                              : 637 MiB (75%)\nWriting library                          : x264 core 125 r2200 999b753\n\nAudio\nID                                       : 2\nFormat                                   : AAC\nFormat/Info                              : Advanced Audio Codec\nFormat profile                           : LC\nCodec ID                                 : 40\nDuration                                 : 1h 26mn\nBit rate mode                            : Variable\nBit rate                                 : 336 Kbps\nMaximum bit rate                         : 384 Kbps\nChannel(s)                               : 6 channels\nChannel positions                        : Front: L C R, Side: L R, LFE\nSampling rate                            : 48.0 KHz\nCompression mode                         : Lossy\nStream size                              : 209 MiB (25%)\n","torrent":{"xt":"urn:btih:1694c732fdd7cb9dc3b32458426ddd1329c61436","amp;dn":"Ice.Age.2.%282006%29.DVDRip.x264.Eng.AAC.5.1.AMX","amp;tr":["udp%3A%2F%2Ftracker.openbittorrent.com%3A80","udp%3A%2F%2Fopen.demonii.com%3A1337","udp%3A%2F%2Ftracker.coppersurfer.tk%3A6969","udp%3A%2F%2Fexodus.desync.com%3A6969"],"infoHash":"1694c732fdd7cb9dc3b32458426ddd1329c61436","infoHashBuffer":{"type":"Buffer","data":[22,148,199,50,253,215,203,157,195,179,36,88,66,109,221,19,41,198,20,54]},"announce":[],"urlList":[]}}